<svg id="Layer_1" data-name="Layer 1" xmlns="http://www.w3.org/2000/svg" viewBox="0 0 351 73"><defs><style>.cls-1{fill:#f40006;}</style></defs><title>Artboard 2</title><path class="cls-1" d="M8.92,13.77H3V8.39H8.92ZM3,16.43H8.92v22.3H3Z"/><path class="cls-1" d="M26.39,16.79a7.09,7.09,0,0,1,2.56,2.47V8.62h5.91V38.74H29.19V35.65a8.22,8.22,0,0,1-2.84,2.88,8,8,0,0,1-4,.9,8.29,8.29,0,0,1-6.58-3.16,12.14,12.14,0,0,1-2.67-8.11q0-5.71,2.63-9a8.55,8.55,0,0,1,7-3.27A7.19,7.19,0,0,1,26.39,16.79Zm1.43,15.89a8.14,8.14,0,0,0,1.29-4.77q0-4.09-2.07-5.85A4.45,4.45,0,0,0,24.1,21a4.09,4.09,0,0,0-3.75,1.93,9,9,0,0,0-1.2,4.8,8.87,8.87,0,0,0,1.22,4.94,4.12,4.12,0,0,0,3.69,1.85A4.31,4.31,0,0,0,27.82,32.68Z"/><path class="cls-1" d="M58.14,17.71q2.19,1.81,2.19,6v15h-6V25.17a6.23,6.23,0,0,0-.47-2.7,3.28,3.28,0,0,0-3.25-1.72,4,4,0,0,0-4,2.52,8.7,8.7,0,0,0-.57,3.4V38.74H40.2V16.48h5.65v3.25A9.9,9.9,0,0,1,48,17.25a7.34,7.34,0,0,1,4.54-1.35A8.55,8.55,0,0,1,58.14,17.71Z"/><path class="cls-1" d="M80.29,16.89a9.07,9.07,0,0,1,3.85,3.3,11,11,0,0,1,1.78,4.61,28.45,28.45,0,0,1,.19,4.43H69.87q.14,3.36,2.33,4.71a5.92,5.92,0,0,0,3.21.84,4.53,4.53,0,0,0,4.44-2.56h6a7.29,7.29,0,0,1-2.16,4q-3,3.25-8.39,3.25a12.16,12.16,0,0,1-7.85-2.74Q64,34,64,27.82q0-5.79,3.07-8.89a10.75,10.75,0,0,1,8-3.09A12.7,12.7,0,0,1,80.29,16.89Zm-8.72,5A6.06,6.06,0,0,0,70,25.38h10a4.86,4.86,0,0,0-1.55-3.52A5.11,5.11,0,0,0,75,20.65,4.63,4.63,0,0,0,71.56,21.92Z"/><path class="cls-1" d="M86.84,38.74l7.61-11.29-7.28-11h7.14L98,22.94l3.64-6.46h6.94l-7.32,10.86,7.61,11.4h-7.26L97.79,32l-3.88,6.7Z"/><path class="cls-1" d="M131.11,18.83q2.73,2.89,2.73,8.47,0,5.89-2.67,9a8.66,8.66,0,0,1-6.87,3.09A7.2,7.2,0,0,1,119.86,38,8.59,8.59,0,0,1,118,35.89V47.51H112.2V16.43h5.59v3.29a9.39,9.39,0,0,1,2-2.29,7.45,7.45,0,0,1,4.65-1.49A8.82,8.82,0,0,1,131.11,18.83ZM126.64,23a4.15,4.15,0,0,0-3.85-2,4.38,4.38,0,0,0-4.4,3,11.3,11.3,0,0,0-.62,4.05q0,3.89,2.09,5.46a4.79,4.79,0,0,0,2.94.92,4.27,4.27,0,0,0,3.75-1.88,8.71,8.71,0,0,0,1.29-5A8.71,8.71,0,0,0,126.64,23Z"/><path class="cls-1" d="M156.55,36q-2.82,3.48-8.57,3.48T139.41,36a12.91,12.91,0,0,1-2.82-8.39,13,13,0,0,1,2.82-8.36q2.82-3.54,8.57-3.54t8.57,3.54a13,13,0,0,1,2.82,8.36A12.91,12.91,0,0,1,156.55,36Zm-4.67-3.22a8.45,8.45,0,0,0,1.37-5.17,8.4,8.4,0,0,0-1.37-5.16,5.18,5.18,0,0,0-7.87,0,8.36,8.36,0,0,0-1.38,5.16A8.41,8.41,0,0,0,144,32.78a5.16,5.16,0,0,0,7.87,0Z"/><path class="cls-1" d="M175.94,15.91l.5,0v6q-.55-.06-1-.08l-.7,0q-3.52,0-4.73,2.29a8.92,8.92,0,0,0-.67,4V38.74h-5.87V16.43h5.56v3.89a12.34,12.34,0,0,1,2.35-3,6.4,6.4,0,0,1,4.26-1.37Z"/><path class="cls-1" d="M177.56,20.79V16.64h3.11V10.42h5.77v6.22h3.62v4.15h-3.62V32.58a2.66,2.66,0,0,0,.35,1.71,3.83,3.83,0,0,0,2.13.34h.56l.58,0v4.36l-2.76.1q-4.13.14-5.65-1.43a4.26,4.26,0,0,1-1-3.09V20.79Z"/><path class="cls-1" d="M208.34,16.89a9.07,9.07,0,0,1,3.85,3.3A11,11,0,0,1,214,24.8a28.54,28.54,0,0,1,.19,4.43H197.92q.14,3.36,2.33,4.71a5.92,5.92,0,0,0,3.21.84,4.53,4.53,0,0,0,4.44-2.56h6a7.29,7.29,0,0,1-2.16,4q-3,3.25-8.39,3.25a12.16,12.16,0,0,1-7.86-2.74q-3.4-2.74-3.4-8.93,0-5.79,3.07-8.89a10.75,10.75,0,0,1,8-3.09A12.7,12.7,0,0,1,208.34,16.89Zm-8.72,5a6.06,6.06,0,0,0-1.55,3.45h10a4.87,4.87,0,0,0-1.55-3.52,5.11,5.11,0,0,0-3.46-1.2A4.62,4.62,0,0,0,199.62,21.92Z"/><path class="cls-1" d="M229.5,15.91l.5,0v6c-.37,0-.7-.07-1-.08l-.7,0q-3.52,0-4.73,2.29a8.91,8.91,0,0,0-.67,4V38.74h-5.87V16.43h5.57v3.89a12.33,12.33,0,0,1,2.35-3,6.4,6.4,0,0,1,4.25-1.37Z"/><path class="cls-1" d="M237.94,31.62a3.89,3.89,0,0,0,.8,2.21q1.09,1.17,4,1.17a6.17,6.17,0,0,0,2.74-.51,1.64,1.64,0,0,0,1-1.53,1.66,1.66,0,0,0-.82-1.49,33.49,33.49,0,0,0-6.1-1.76,12.67,12.67,0,0,1-5.36-2.35,5.1,5.1,0,0,1-1.55-4A7,7,0,0,1,235.13,18,9.77,9.77,0,0,1,242,15.8a12.57,12.57,0,0,1,6.82,1.67q2.63,1.67,3,5.76H246a3.44,3.44,0,0,0-.64-1.78,4,4,0,0,0-3.28-1.19,4.73,4.73,0,0,0-2.72.59,1.71,1.71,0,0,0-.81,1.39,1.52,1.52,0,0,0,.86,1.45,37.3,37.3,0,0,0,6.09,1.62,11.17,11.17,0,0,1,5.22,2.48A5.62,5.62,0,0,1,252.43,32,6.77,6.77,0,0,1,250,37.4q-2.47,2.1-7.64,2.1t-7.78-2.22A7.22,7.22,0,0,1,232,31.62Z"/><path class="cls-1" d="M256.62,32.62h6.2v6.12h-6.2Z"/><path class="cls-1" d="M281.7,24.43a5.17,5.17,0,0,0-.84-2.25,3.53,3.53,0,0,0-3.06-1.35,4,4,0,0,0-4,2.93,12.14,12.14,0,0,0-.57,4.12,11.17,11.17,0,0,0,.57,3.94,3.9,3.9,0,0,0,3.94,2.78,3.48,3.48,0,0,0,2.91-1.1,5.49,5.49,0,0,0,1-2.86h6a9.75,9.75,0,0,1-1.92,5q-2.75,3.83-8.13,3.83t-7.93-3.19A12.89,12.89,0,0,1,267.1,28q0-5.74,2.8-8.93a9.77,9.77,0,0,1,7.74-3.19,11.67,11.67,0,0,1,6.87,1.88q2.67,1.88,3.16,6.65Z"/><path class="cls-1" d="M310.26,36q-2.82,3.48-8.57,3.48T293.12,36a12.91,12.91,0,0,1-2.82-8.39,13,13,0,0,1,2.82-8.36q2.82-3.54,8.57-3.54t8.57,3.54a13,13,0,0,1,2.82,8.36A12.91,12.91,0,0,1,310.26,36Zm-4.67-3.22A8.45,8.45,0,0,0,307,27.62a8.4,8.4,0,0,0-1.37-5.16,5.18,5.18,0,0,0-7.87,0,8.36,8.36,0,0,0-1.38,5.16,8.41,8.41,0,0,0,1.38,5.17,5.16,5.16,0,0,0,7.87,0Z"/><path class="cls-1" d="M345.09,16.52a6.48,6.48,0,0,1,2.6,2A6.42,6.42,0,0,1,349,21.39a19.76,19.76,0,0,1,.21,3.29l0,14.06h-6V24.54a4.67,4.67,0,0,0-.41-2.09,2.91,2.91,0,0,0-2.86-1.56,3.35,3.35,0,0,0-3.33,2,6.3,6.3,0,0,0-.47,2.56V38.74h-5.87V25.46a7.47,7.47,0,0,0-.41-2.88A2.86,2.86,0,0,0,326.9,21q-2.5,0-3.36,1.62a6.22,6.22,0,0,0-.47,2.74V38.74h-5.91V16.48h5.67v3.25a9.38,9.38,0,0,1,2-2.48,8.09,8.09,0,0,1,8.53-.18,6.55,6.55,0,0,1,1.92,2.68,7.41,7.41,0,0,1,2.84-2.88,8.68,8.68,0,0,1,4-.92A7.76,7.76,0,0,1,345.09,16.52Z"/><path d="M6.15,62.7H3.59V50.36H6.15Z"/><path d="M8.52,50.36h2.7l4.9,8.6v-8.6h2.4V62.7H15.94l-5-8.75V62.7H8.52Z"/><path d="M28.17,50.63a4.08,4.08,0,0,1,2.1,1.56,5.5,5.5,0,0,1,.88,2,9.56,9.56,0,0,1,.23,2,8.2,8.2,0,0,1-1,4.17,4.46,4.46,0,0,1-4.14,2.3H20.94V50.36h5.32A6.49,6.49,0,0,1,28.17,50.63ZM23.44,52.5v8.05h2.38a2.57,2.57,0,0,0,2.55-1.8,6.33,6.33,0,0,0,.39-2.35,5.78,5.78,0,0,0-.59-2.89,2.5,2.5,0,0,0-2.35-1Z"/><path d="M42.82,61.6a5.38,5.38,0,0,1-4,1.44,5.38,5.38,0,0,1-4-1.44,6.66,6.66,0,0,1-1.87-5.09,6.53,6.53,0,0,1,1.87-5.09,5.38,5.38,0,0,1,4-1.44,5.38,5.38,0,0,1,4,1.44,6.54,6.54,0,0,1,1.87,5.09A6.67,6.67,0,0,1,42.82,61.6ZM41.2,59.73a5,5,0,0,0,.9-3.21,5.05,5.05,0,0,0-.9-3.21,2.94,2.94,0,0,0-2.43-1.13,3,3,0,0,0-2.44,1.13,5,5,0,0,0-.91,3.21,5,5,0,0,0,.91,3.21,3,3,0,0,0,2.44,1.13A2.94,2.94,0,0,0,41.2,59.73Z"/><path d="M46.61,50.36h2.7l4.9,8.6v-8.6h2.4V62.7H54l-5-8.75V62.7h-2.4Z"/><path d="M68.15,52.55H61.62v2.62h6v2.14h-6v3.17h6.83V62.7H59.1V50.36h9Z"/><path d="M72.32,58.89a2.5,2.5,0,0,0,.47,1.26,2.74,2.74,0,0,0,2.2.76,4.73,4.73,0,0,0,1.51-.2,1.44,1.44,0,0,0,1.1-1.43,1.05,1.05,0,0,0-.54-.95,5.86,5.86,0,0,0-1.71-.58L74,57.47a8.31,8.31,0,0,1-2.71-.95,3,3,0,0,1-1.25-2.67,3.55,3.55,0,0,1,1.22-2.75A5.2,5.2,0,0,1,74.86,50a5.5,5.5,0,0,1,3.37,1,3.67,3.67,0,0,1,1.46,3H77.21a1.77,1.77,0,0,0-1-1.58,3.41,3.41,0,0,0-1.54-.31,2.92,2.92,0,0,0-1.63.4,1.27,1.27,0,0,0-.61,1.12,1.06,1.06,0,0,0,.6,1,7.48,7.48,0,0,0,1.64.51l2.17.51a5.5,5.5,0,0,1,2.13.9,3,3,0,0,1,1.1,2.52,3.54,3.54,0,0,1-1.31,2.81A5.51,5.51,0,0,1,75.08,63a6,6,0,0,1-3.83-1.1,3.64,3.64,0,0,1-1.4-3Z"/><path d="M84.24,62.7H81.68V50.36h2.56Z"/><path d="M90.18,50.36H93.1L97.46,62.7h-2.8l-.81-2.54H89.31l-.84,2.54h-2.7ZM90,58h3.16l-1.56-4.85Z"/><path d="M112.29,52.55h-6.53v2.62h6v2.14h-6v3.17h6.83V62.7h-9.35V50.36h9Z"/><path d="M116.57,62.7h-3l4-6.29-3.77-6.05h3.08l2.2,4,2.26-4h3l-3.77,6,4,6.39h-3.13L119,58.49Z"/><path d="M134.31,57.36a4.71,4.71,0,0,1-3.09.9h-2.57V62.7h-2.56V50.36h5.3a4.27,4.27,0,0,1,2.92,1,3.73,3.73,0,0,1,1.09,3A3.83,3.83,0,0,1,134.31,57.36Zm-2-4.44A2.08,2.08,0,0,0,131,52.5h-2.32v3.63H131a2,2,0,0,0,1.37-.44,1.81,1.81,0,0,0,.49-1.41A1.7,1.7,0,0,0,132.34,52.92Z"/><path d="M147,61.6a6.4,6.4,0,0,1-8.08,0A6.66,6.66,0,0,1,137,56.51a6.53,6.53,0,0,1,1.87-5.09,6.4,6.4,0,0,1,8.08,0,6.54,6.54,0,0,1,1.87,5.09A6.67,6.67,0,0,1,147,61.6Zm-1.61-1.87a5,5,0,0,0,.9-3.21,5.05,5.05,0,0,0-.9-3.21,2.94,2.94,0,0,0-2.43-1.13,3,3,0,0,0-2.44,1.13,5,5,0,0,0-.91,3.21,5,5,0,0,0,.91,3.21,3,3,0,0,0,2.44,1.13A2.94,2.94,0,0,0,145.35,59.73Z"/><path d="M158.7,50.68a3.05,3.05,0,0,1,1.15.86,3.84,3.84,0,0,1,.62,1,3.46,3.46,0,0,1,.23,1.3,3.7,3.7,0,0,1-.44,1.73,2.48,2.48,0,0,1-1.46,1.2,2.3,2.3,0,0,1,1.21,1,4.06,4.06,0,0,1,.36,1.93v.83a6.22,6.22,0,0,0,.07,1.15,1,1,0,0,0,.48.7v.31h-2.85q-.12-.41-.17-.66a6.1,6.1,0,0,1-.11-1.06l0-1.15a2.33,2.33,0,0,0-.41-1.57,2.08,2.08,0,0,0-1.47-.39h-2.52V62.7h-2.52V50.36h5.9A5.38,5.38,0,0,1,158.7,50.68Zm-5.33,1.82v3.31h2.77a3,3,0,0,0,1.24-.2,1.39,1.39,0,0,0,.73-1.39,1.56,1.56,0,0,0-.71-1.51,2.55,2.55,0,0,0-1.19-.22Z"/><path d="M172.13,50.36v2.18h-3.69V62.7h-2.59V52.55h-3.71V50.36Z"/><path d="M182.76,52.55h-6.53v2.62h6v2.14h-6v3.17h6.83V62.7h-9.35V50.36h9Z"/><path d="M193,50.68a3.05,3.05,0,0,1,1.15.86,3.83,3.83,0,0,1,.62,1,3.46,3.46,0,0,1,.23,1.3,3.69,3.69,0,0,1-.44,1.73,2.48,2.48,0,0,1-1.46,1.2,2.31,2.31,0,0,1,1.21,1,4.06,4.06,0,0,1,.36,1.93v.83a6.18,6.18,0,0,0,.07,1.15,1,1,0,0,0,.48.7v.31h-2.84q-.12-.41-.17-.66a6.06,6.06,0,0,1-.11-1.06l0-1.15a2.33,2.33,0,0,0-.41-1.57,2.08,2.08,0,0,0-1.47-.39h-2.52V62.7h-2.52V50.36H191A5.38,5.38,0,0,1,193,50.68Zm-5.33,1.82v3.31h2.77a3,3,0,0,0,1.24-.2,1.39,1.39,0,0,0,.73-1.39,1.56,1.56,0,0,0-.71-1.51,2.56,2.56,0,0,0-1.19-.22Z"/><path d="M199.31,58.89a2.5,2.5,0,0,0,.47,1.26,2.74,2.74,0,0,0,2.2.76,4.73,4.73,0,0,0,1.51-.2,1.44,1.44,0,0,0,1.1-1.43,1.05,1.05,0,0,0-.54-.95,5.86,5.86,0,0,0-1.71-.58L201,57.47a8.33,8.33,0,0,1-2.71-.95A3,3,0,0,1,197,53.85a3.55,3.55,0,0,1,1.22-2.75,5.2,5.2,0,0,1,3.58-1.1,5.5,5.5,0,0,1,3.37,1,3.67,3.67,0,0,1,1.46,3H204.2a1.77,1.77,0,0,0-1-1.58,3.41,3.41,0,0,0-1.54-.31,2.92,2.92,0,0,0-1.63.4,1.27,1.27,0,0,0-.61,1.12,1.06,1.06,0,0,0,.6,1,7.47,7.47,0,0,0,1.64.51l2.17.51a5.5,5.5,0,0,1,2.13.9,3,3,0,0,1,1.1,2.52,3.54,3.54,0,0,1-1.31,2.81A5.51,5.51,0,0,1,202.07,63a6,6,0,0,1-3.83-1.1,3.64,3.64,0,0,1-1.4-3Z"/><path d="M221.83,50.36h3.71V62.7h-2.4V54.35q0-.36,0-1t0-1L220.81,62.7h-2.5L216,52.35q0,.35,0,1t0,1V62.7h-2.4V50.36h3.75l2.25,9.7Z"/><path d="M231.45,50.36h2.92l4.36,12.34h-2.79l-.81-2.54h-4.54l-.84,2.54H227ZM231.28,58h3.16l-1.56-4.85Z"/><path d="M248.2,50.68a3.05,3.05,0,0,1,1.15.86,3.83,3.83,0,0,1,.62,1,3.46,3.46,0,0,1,.23,1.3,3.69,3.69,0,0,1-.44,1.73,2.48,2.48,0,0,1-1.46,1.2,2.31,2.31,0,0,1,1.21,1,4.06,4.06,0,0,1,.36,1.93v.83a6.18,6.18,0,0,0,.07,1.15,1,1,0,0,0,.48.7v.31h-2.84q-.12-.41-.17-.66a6.06,6.06,0,0,1-.11-1.06l0-1.15a2.33,2.33,0,0,0-.41-1.57,2.08,2.08,0,0,0-1.47-.39h-2.52V62.7h-2.52V50.36h5.9A5.38,5.38,0,0,1,248.2,50.68Zm-5.33,1.82v3.31h2.77a3,3,0,0,0,1.24-.2,1.39,1.39,0,0,0,.73-1.39,1.56,1.56,0,0,0-.71-1.51,2.56,2.56,0,0,0-1.19-.22Z"/><path d="M252.72,50.36h2.54v5.08L260,50.36h3.33l-5.06,5.07,5.32,7.26H260.3l-3.8-5.38-1.24,1.26V62.7h-2.54Z"/><path d="M274.18,52.55h-6.53v2.62h6v2.14h-6v3.17h6.83V62.7h-9.35V50.36h9Z"/><path d="M285.45,50.36v2.18h-3.69V62.7h-2.59V52.55h-3.71V50.36Z"/><path d="M300,57.36a4.7,4.7,0,0,1-3.09.9h-2.57V62.7h-2.56V50.36h5.3a4.27,4.27,0,0,1,2.92,1,3.72,3.72,0,0,1,1.09,3A3.83,3.83,0,0,1,300,57.36Zm-2-4.44a2.08,2.08,0,0,0-1.37-.41h-2.32v3.63h2.32a2,2,0,0,0,1.37-.44,1.81,1.81,0,0,0,.49-1.41A1.7,1.7,0,0,0,298,52.92Z"/><path d="M303.15,50.36h2.58V60.48h6.16V62.7h-8.74Z"/><path d="M317.15,50.36h2.92l4.36,12.34h-2.79l-.81-2.54h-4.54l-.84,2.54h-2.7ZM317,58h3.16l-1.56-4.85Z"/><path d="M327.18,51.65a5.75,5.75,0,0,1,8.3.52,4.46,4.46,0,0,1,.84,2.3h-2.58a3.53,3.53,0,0,0-.63-1.34,2.54,2.54,0,0,0-2-.8,2.52,2.52,0,0,0-2.17,1.13,5.54,5.54,0,0,0-.79,3.21,4.86,4.86,0,0,0,.84,3.11,2.63,2.63,0,0,0,2.13,1,2.42,2.42,0,0,0,2-.89,3.91,3.91,0,0,0,.64-1.43h2.56a5.56,5.56,0,0,1-1.69,3.28A4.93,4.93,0,0,1,331.11,63,5.24,5.24,0,0,1,327,61.33a6.88,6.88,0,0,1-1.51-4.7A6.81,6.81,0,0,1,327.18,51.65Z"/><path d="M347.5,52.55H341v2.62h6v2.14h-6v3.17h6.83V62.7h-9.35V50.36h9Z"/></svg>